<svg xmlns="http://www.w3.org/2000/svg" xmlns:svg="http://www.w3.org/2000/svg" id="svg26" width="118" height="150" version="1.1" viewBox="0 0 195.877 248.543"><metadata id="metadata32"/><title id="title2">Group 13</title><desc id="desc4">Created with Sketch.</desc><g id="Page-1" transform="matrix(0.46070312,0,0,0.46097314,0.03915045,0.03917339)" style="fill:none;fill-rule:evenodd;stroke:none;stroke-width:2.16995955"><g id="Group-13" transform="translate(1,1)" style="stroke-width:2.16995955"><circle id="Oval" cx="188.5" cy="251.5" r="132.5" style="fill:#4360df;stroke-width:2.16995955"/><g id="Group-12" style="stroke-width:2.16995955"><path id="path7" d="M 211.5,383 C 317.26253,383 423,297.26253 423,191.5 423,85.73747 317.26253,0 211.5,0 105.73747,0 0,85.73747 0,191.5 0,297.26253 105.73747,383 211.5,383 Z" style="fill:#000;stroke:#000;stroke-width:2.16995955"/><rect id="Rectangle" width="305" height="365" x="59" y="128" rx="152.5" style="fill:#00a7ff;stroke-width:2.16995955"/><path id="Path" d="m 263.93092,307 c 6.21908,0 11.26645,5.04737 11.26645,11.26645 0,6.21908 -5.04737,11.26644 -11.26645,11.26644 -6.21908,0 -11.26645,-5.04736 -11.26645,-11.26644 0,-6.21908 5.04737,-11.26645 11.26645,-11.26645 z" style="fill:#000;stroke-width:2.16995955"/><path id="path11" d="m 151.26645,307 c 6.21908,0 11.26644,5.04737 11.26644,11.26645 0,6.21908 -5.04736,11.26644 -11.26644,11.26644 C 145.04737,329.53289 140,324.48553 140,318.26645 140,312.04737 145.04737,307 151.26645,307 Z" style="fill:#000;stroke-width:2.16995955"/><path id="path13" d="m 59.5,128.5 v 141.6969 l 152,-74.7541 152,74.7541 V 128.5 Z" style="fill:#000;stroke:#000;stroke-width:2.16995955"/><path id="path15" d="m 221.2773,87.462167 25.92971,43.216183 c 2.2948,3.82467 2.05287,8.65649 -0.61249,12.2328 l -26.23311,35.19886 c -3.63036,4.87111 -10.52216,5.87694 -15.39328,2.24659 -0.86691,-0.6461 -1.63383,-1.41648 -2.27603,-2.28628 l -26.26479,-35.57384 c -2.67355,-3.62113 -2.87118,-8.50575 -0.49891,-12.33103 l 26.5682,-42.841213 c 3.2018,-5.162913 9.98275,-6.752704 15.14566,-3.550897 1.48799,0.922785 2.73421,2.187442 3.63504,3.688827 z" style="fill:#fff;stroke-width:2.16995955"/><path id="path17" d="m 207,537 c 45.28735,0 82,-66.71265 82,-112 0,-45.28735 -36.71265,-62 -82,-62 -45.28735,0 -82,16.71265 -82,62 0,45.28735 36.71265,112 82,112 z" style="fill:#000;stroke:#000;stroke-width:2.16995955"/><path id="Line-21" d="m 172,423 c 11.58365,-6.66667 23.02922,-10 34.33671,-10 C 233.286,413 242,422 242,422" transform="rotate(180,207,418)" style="stroke:#fff;stroke-width:28.20947266;stroke-linecap:round;stroke-linejoin:round"/><path id="Line-22" d="m 122.5,307 h 53.59868" style="fill:#000;stroke:#000;stroke-width:28.20947266;stroke-linecap:round"/><path id="path21" d="m 232.5,307 h 53.59868" style="fill:#000;stroke:#000;stroke-width:28.20947266;stroke-linecap:round"/></g></g></g></svg>